inDegrees=yes
name=ik_XSDot_20240315_154836_orientations
DataType=double
version=3
OpenSimVersion=4.5-2024-01-10-34fd6af
endheader
time	pelvis_tilt	pelvis_list	pelvis_rotation	pelvis_tx	pelvis_ty	pelvis_tz	hip_flexion_r	hip_adduction_r	hip_rotation_r	knee_angle_r	ankle_angle_r	subtalar_angle_r	mtp_angle_r	hip_flexion_l	hip_adduction_l	hip_rotation_l	knee_angle_l	ankle_angle_l	subtalar_angle_l	mtp_angle_l	lumbar_extension	lumbar_bending	lumbar_rotation
2.99999999999998	44.55416967354103	0.7483709379296585	55.99553560563032	0	0.95	0	-169.8074822581431	-3.991983023300774	28.20493107632123	-1.107443367689249	0	0	0	-5.976325056530803	8.284331348988557	-17.5021324035304	-137.5829184042408	0	0	0	0	0	0
3.00999999999998	43.86293118013744	0.1237872557158643	57.37976791429985	0	0.95	0	-169.8481239463818	-3.999680389555089	30.01543361067591	-0.05736906162298847	0	0	0	-5.565864599657622	7.628648917499766	-14.87324991441202	-139.4476870977723	0	0	0	0	0	0
3.01999999999998	43.18133100146829	-0.5386613714025615	58.79677934839582	0	0.95	0	-169.970340362741	-4.047171931348146	31.77434499943089	1.097798912701414	0	0	0	-5.097930295180057	6.896205149709627	-11.97188014354111	-141.4284082466806	0	0	0	0	0	0
3.029999999999979	42.49965897274254	-1.095841102361921	60.15832710891206	0	0.95	0	-170.2370000287504	-4.072580775637383	33.33075076239585	2.263608460545535	0	0	0	-4.679506308684867	6.147517688503845	-8.88322673612493	-143.1476547122462	0	0	0	0	0	0
3.039999999999979	41.78294884012819	-1.660174128788257	61.43535430096497	0	0.95	0	-170.5098294414865	-4.075608626049817	34.71936702092477	3.246927070101135	0	0	0	-4.258133655568279	5.388617783581863	-5.625076293209616	-144.3393377138438	0	0	0	0	0	0
3.049999999999979	41.08712103099798	-2.296839946054701	62.73820713810158	0	0.95	0	-170.4987710283772	-4.028871511914105	36.08263543142483	3.816532120290855	0	0	0	-3.8680080509066	4.624322023483741	-2.195237525432253	-144.8886980985897	0	0	0	0	0	0
3.059999999999979	40.45198115465018	-2.942058306718091	63.98861276128532	0	0.95	0	-170.2557073472458	-3.873179525373756	37.34209244289482	4.129836994033951	0	0	0	-3.48926115659641	3.678240343428648	1.162417146466106	-144.1431670340122	0	0	0	0	0	0
3.069999999999979	39.93036961821016	-3.498768422931591	65.21055198208838	0	0.95	0	-169.921681985385	-3.613439598602635	38.52141364740346	4.309890368485897	0	0	0	-3.221475747568587	2.599098363804544	4.492359099291213	-142.0754578649013	0	0	0	0	0	0
3.079999999999978	39.63413547768751	-3.779309042986652	66.44661090573453	0	0.95	0	-169.783455670626	-3.28705647845779	39.68181534330451	4.395787210144677	0	0	0	-3.189656550820453	1.541849313031192	7.93164712300286	-139.9809319416213	0	0	0	0	0	0
3.089999999999978	39.54967161096426	-3.728392884706483	67.62825180873676	0	0.95	0	-169.958654045711	-2.966918952026674	40.78535245065665	4.495307143262303	0	0	0	-3.486015951507699	0.3781737028946585	11.20955389300877	-137.542540256041	0	0	0	0	0	0
3.099999999999978	39.64695063868432	-3.358899442448028	68.71267708296665	0	0.95	0	-170.4907014149776	-2.683036691627535	41.7983214207196	4.558339886511503	0	0	0	-4.00705668077397	-0.8527902244172152	14.30532149371133	-134.9938700514481	0	0	0	0	0	0
3.109999999999978	39.6968917869997	-3.132784625283744	69.81234066263019	0	0.95	0	-170.8621777834508	-2.375484952606692	42.79956804838183	4.586229652844199	0	0	0	-4.290284918193103	-1.956235434175231	17.34739735386329	-133.2618716983253	0	0	0	0	0	0
3.119999999999977	39.60100258613295	-3.199550249726749	70.85984903680676	0	0.95	0	-170.8733539487869	-1.982162782933868	43.71184901495891	4.507245641307446	0	0	0	-4.206259174503174	-2.920795531020936	20.23523272620328	-131.7517482948464	0	0	0	0	0	0
3.129999999999977	39.42114720698292	-3.467417604143387	71.91054636812359	0	0.95	0	-170.7147324979414	-1.577375211512219	44.55099375355355	4.412217348867483	0	0	0	-3.829325145341552	-3.770700476180163	22.93241386416071	-130.5790541503369	0	0	0	0	0	0
3.139999999999977	39.14820262626144	-3.88416136334509	72.92949999379871	0	0.95	0	-170.6022473351153	-1.241846572591415	45.24406764608283	4.532973818170888	0	0	0	-3.296002519946915	-4.459763417467051	25.33724142514367	-129.9964755446319	0	0	0	0	0	0
3.149999999999977	38.85909894757788	-4.318253705341997	73.97052727962759	0	0.95	0	-170.4598419304608	-0.9100923342071892	45.83717747314116	4.619439310667945	0	0	0	-2.704036925655383	-5.187881352970372	27.58088631010369	-129.7737467233415	0	0	0	0	0	0
3.159999999999977	38.54231732931062	-4.783432296999999	74.98792617618884	0	0.95	0	-170.2655504154084	-0.5697395395958702	46.3598736086597	4.67121349209263	0	0	0	-2.083508817899119	-5.946834605028124	29.70569191643239	-129.4220544837662	0	0	0	0	0	0
3.169999999999976	38.16768438777623	-5.291943617386652	75.95799842875385	0	0.95	0	-170.183106935331	-0.4134202954557734	46.84823669312523	4.982676513469343	0	0	0	-1.492942349397876	-6.635850022304824	31.55778015673926	-129.1186205058675	0	0	0	0	0	0
3.179999999999976	37.77402521981256	-5.879928736963447	76.81768248284502	0	0.95	0	-170.261889991704	-0.5209038024867585	47.25008329909277	5.609646722894591	0	0	0	-0.8662167259242812	-7.042944605923975	33.10251052387002	-129.3023933622204	0	0	0	0	0	0
3.189999999999976	37.36706706666553	-6.458717863547478	77.46574602833388	0	0.95	0	-170.6645175388109	-0.8637944486225198	47.42672265706231	6.705388390919627	0	0	0	-0.2859011645853778	-7.130662550235763	34.1822868091981	-129.7613493787732	0	0	0	0	0	0
3.199999999999976	37.00241359259149	-6.977519205777441	77.96998345263077	0	0.95	0	-171.1955970840442	-1.227593372518309	47.34938341633227	7.897701882112021	0	0	0	0.1702502377295312	-6.983238759425661	34.78472615546109	-130.4784976111499	0	0	0	0	0	0
3.209999999999976	36.70265838268917	-7.466480740068077	78.4167253527613	0	0.95	0	-171.7846959744057	-1.657971236480931	47.1312679440837	9.077283874489336	0	0	0	0.5049294811895934	-6.64978767304304	34.98956821990758	-131.377816991747	0	0	0	0	0	0
3.219999999999975	36.41911323639538	-8.018793821852114	78.82574246655057	0	0.95	0	-172.4924073531911	-2.266887673621395	46.73098454427566	10.41834018381323	0	0	0	0.8250620351962135	-6.175251266180186	34.92987911832261	-132.3546364547616	0	0	0	0	0	0
3.229999999999975	36.23733451051153	-8.595711646195001	79.24550782357342	0	0.95	0	-172.5793895645742	-2.383391575524278	45.99796212816113	10.83501095800267	0	0	0	1.060323892385699	-5.732588304233925	34.76765754224583	-134.2408539904613	0	0	0	0	0	0
3.239999999999975	35.9917482505704	-9.282763879375189	79.66262945018607	0	0.95	0	-172.6400909747573	-2.775158007978361	45.59362508350268	11.51747141958922	0	0	0	1.659216572207656	-5.194045922814373	34.82557959895285	-137.728799882625	0	0	0	0	0	0
3.249999999999975	35.83288634138673	-9.87057927798886	79.97445384706928	0	0.95	0	-174.230972658063	-4.193284515106574	45.367791054173	13.80813683956649	0	0	0	2.532426256104822	-4.889582929742835	35.4389837805838	-138.0373346972947	0	0	0	0	0	0
3.259999999999974	35.72121101970509	-10.34472470917546	80.06323689279503	0	0.95	0	-175.6969617609292	-4.839055954658072	44.22119152156809	15.32928950533398	0	0	0	3.501765015433455	-4.681406502048182	35.64115630186582	-136.0374882070446	0	0	0	0	0	0
3.269999999999974	35.66382396316021	-10.78169951986024	79.95103180581158	0	0.95	0	-175.8211247409668	-4.220989422384756	42.53593462970149	14.83254443336237	0	0	0	4.323559852021871	-4.101194568460198	34.94817950405633	-135.7629879034609	0	0	0	0	0	0
3.279999999999974	35.69282420691057	-11.16932193114184	79.57192813931835	0	0.95	0	-174.3518939496824	-2.453500133013165	40.59992478466071	12.26315234212064	0	0	0	4.888125491003869	-3.269856632026709	33.74369258558962	-138.2378596168357	0	0	0	0	0	0
3.289999999999974	35.86727531334574	-11.58503542322862	78.89324801814769	0	0.95	0	-171.5965578583716	-0.3004727440921934	38.57443066475237	8.350592037650841	0	0	0	5.233272984122319	-2.697591793586994	32.52312192420412	-140.1770192712853	0	0	0	0	0	0
3.299999999999974	36.15818198090179	-12.11556396194369	77.9232462155405	0	0.95	0	-168.4280448138274	1.53057570432605	36.28431877505518	4.19180760426454	0	0	0	5.482296416761791	-2.524294910507422	30.99756874543015	-140.8586661667703	0	0	0	0	0	0
3.309999999999973	36.59770387502543	-12.56995796701532	76.62631317022738	0	0.95	0	-166.0249420118891	2.485463317562936	33.40819429672188	1.018696685946773	0	0	0	5.459838056969824	-2.670395497725383	28.92363583067516	-141.838419228481	0	0	0	0	0	0
